  999
DXF file created by gear template generator.  2014-02-25T10:18:08
  0
SECTION
  2
HEADER
  9
$ACADVER
  1
AC1006
  9
$INSBASE
  10
0.0
  20
0.0
  30
0.0
  9
$EXTMIN
  10
0.0
  20
0.0
  9
$EXTMAX
  10
10000.0
  20
10000.0
  0
ENDSEC
  0
SECTION
  2
ENTITIES
 0
LWPOLYLINE
 8
profile
 90
720
 70
1
 10
3.49736
 20
1.91027
 10
3.50296
 20
1.90845
 10
3.50857
 20
1.90657
 10
3.51978
 20
1.90263
 10
3.5422
 20
1.89408
 10
3.5646
 20
1.88465
 10
3.58696
 20
1.87439
 10
3.60928
 20
1.86331
 10
3.63154
 20
1.85145
 10
3.63154
 20
1.78044
 10
3.60928
 20
1.76858
 10
3.58696
 20
1.75751
 10
3.5646
 20
1.74724
 10
3.5422
 20
1.73782
 10
3.51978
 20
1.72926
 10
3.50857
 20
1.72532
 10
3.50296
 20
1.72344
 10
3.49736
 20
1.72162
 10
3.49141
 20
1.64608
 10
3.49666
 20
1.6434
 10
3.5019
 20
1.64067
 10
3.51236
 20
1.63503
 10
3.53317
 20
1.62307
 10
3.55382
 20
1.61026
 10
3.5743
 20
1.59662
 10
3.59462
 20
1.58219
 10
3.61475
 20
1.56699
 10
3.60364
 20
1.49686
 10
3.5798
 20
1.48862
 10
3.55602
 20
1.48118
 10
3.53232
 20
1.47454
 10
3.50872
 20
1.46873
 10
3.48524
 20
1.46379
 10
3.47355
 20
1.46165
 10
3.46772
 20
1.46067
 10
3.4619
 20
1.45975
 10
3.44421
 20
1.38607
 10
3.44898
 20
1.38261
 10
3.45373
 20
1.37908
 10
3.46317
 20
1.37188
 10
3.48185
 20
1.35681
 10
3.50024
 20
1.34093
 10
3.51834
 20
1.32425
 10
3.53615
 20
1.30682
 10
3.55365
 20
1.28866
 10
3.53171
 20
1.22113
 10
3.50688
 20
1.21673
 10
3.48223
 20
1.21309
 10
3.45778
 20
1.21024
 10
3.43356
 20
1.2082
 10
3.4096
 20
1.20699
 10
3.39772
 20
1.20671
 10
3.39181
 20
1.20665
 10
3.38591
 20
1.20665
 10
3.35692
 20
1.13665
 10
3.36108
 20
1.13248
 10
3.36522
 20
1.12826
 10
3.37343
 20
1.11966
 10
3.38952
 20
1.10186
 10
3.4052
 20
1.08329
 10
3.42047
 20
1.06399
 10
3.43533
 20
1.04399
 10
3.44977
 20
1.02331
 10
3.41754
 20
0.96005
 10
3.39232
 20
0.95958
 10
3.3674
 20
0.95985
 10
3.34281
 20
0.96086
 10
3.31858
 20
0.96263
 10
3.29472
 20
0.96519
 10
3.28294
 20
0.96677
 10
3.27709
 20
0.96764
 10
3.27127
 20
0.96856
 10
3.23168
 20
0.90395
 10
3.23514
 20
0.89918
 10
3.23857
 20
0.89436
 10
3.24533
 20
0.88459
 10
3.25844
 20
0.86449
 10
3.27102
 20
0.8437
 10
3.28308
 20
0.82225
 10
3.29463
 20
0.80017
 10
3.30566
 20
0.77749
 10
3.26393
 20
0.72004
 10
3.23895
 20
0.72353
 10
3.21438
 20
0.72769
 10
3.19025
 20
0.73253
 10
3.16659
 20
0.73807
 10
3.14342
 20
0.74433
 10
3.13204
 20
0.74773
 10
3.1264
 20
0.74951
 10
3.12079
 20
0.75133
 10
3.07158
 20
0.69371
 10
3.07426
 20
0.68846
 10
3.07689
 20
0.68316
 10
3.08203
 20
0.67245
 10
3.09184
 20
0.65055
 10
3.10101
 20
0.62804
 10
3.10957
 20
0.60497
 10
3.11752
 20
0.58136
 10
3.12487
 20
0.55723
 10
3.07466
 20
0.50702
 10
3.05054
 20
0.51437
 10
3.02692
 20
0.52232
 10
3.00385
 20
0.53088
 10
2.98134
 20
0.54006
 10
2.95944
 20
0.54986
 10
2.94873
 20
0.555
 10
2.94344
 20
0.55764
 10
2.93818
 20
0.56031
 10
2.88056
 20
0.5111
 10
2.88239
 20
0.50549
 10
2.88416
 20
0.49985
 10
2.88756
 20
0.48847
 10
2.89382
 20
0.4653
 10
2.89936
 20
0.44164
 10
2.9042
 20
0.41751
 10
2.90836
 20
0.39295
 10
2.91185
 20
0.36796
 10
2.85441
 20
0.32623
 10
2.83172
 20
0.33726
 10
2.80964
 20
0.34881
 10
2.78819
 20
0.36087
 10
2.7674
 20
0.37346
 10
2.7473
 20
0.38656
 10
2.73753
 20
0.39332
 10
2.73271
 20
0.39675
 10
2.72794
 20
0.40021
 10
2.66333
 20
0.36062
 10
2.66426
 20
0.3548
 10
2.66513
 20
0.34895
 10
2.66671
 20
0.33717
 10
2.66926
 20
0.31332
 10
2.67103
 20
0.28908
 10
2.67204
 20
0.26449
 10
2.67231
 20
0.23957
 10
2.67184
 20
0.21435
 10
2.60858
 20
0.18212
 10
2.5879
 20
0.19657
 10
2.5679
 20
0.21143
 10
2.5486
 20
0.2267
 10
2.53003
 20
0.24237
 10
2.51223
 20
0.25847
 10
2.50363
 20
0.26667
 10
2.49941
 20
0.27081
 10
2.49525
 20
0.27498
 10
2.42524
 20
0.24598
 10
2.42524
 20
0.24008
 10
2.42518
 20
0.23417
 10
2.4249
 20
0.22229
 10
2.42369
 20
0.19833
 10
2.42165
 20
0.17411
 10
2.4188
 20
0.14967
 10
2.41517
 20
0.12502
 10
2.41076
 20
0.10018
 10
2.34323
 20
0.07824
 10
2.32507
 20
0.09574
 10
2.30764
 20
0.11355
 10
2.29097
 20
0.13165
 10
2.27508
 20
0.15004
 10
2.26002
 20
0.16872
 10
2.25281
 20
0.17816
 10
2.24929
 20
0.18291
 10
2.24582
 20
0.18768
 10
2.17214
 20
0.16999
 10
2.17122
 20
0.16417
 10
2.17024
 20
0.15834
 10
2.1681
 20
0.14665
 10
2.16316
 20
0.12317
 10
2.15735
 20
0.09957
 10
2.15072
 20
0.07587
 10
2.14327
 20
0.0521
 10
2.13503
 20
0.02825
 10
2.0649
 20
0.01715
 10
2.0497
 20
0.03728
 10
2.03527
 20
0.05759
 10
2.02164
 20
0.07808
 10
2.00882
 20
0.09873
 10
1.99687
 20
0.11953
 10
1.99122
 20
0.12999
 10
1.98849
 20
0.13523
 10
1.98581
 20
0.14048
 10
1.91027
 20
0.13454
 10
1.90845
 20
0.12893
 10
1.90657
 20
0.12333
 10
1.90263
 20
0.11211
 10
1.89408
 20
0.0897
 10
1.88465
 20
0.0673
 10
1.87439
 20
0.04493
 10
1.86331
 20
0.02261
 10
1.85145
 20
0.00035
 10
1.78044
 20
0.00035
 10
1.76858
 20
0.02261
 10
1.75751
 20
0.04493
 10
1.74724
 20
0.0673
 10
1.73782
 20
0.0897
 10
1.72926
 20
0.11211
 10
1.72532
 20
0.12333
 10
1.72344
 20
0.12893
 10
1.72162
 20
0.13454
 10
1.64608
 20
0.14048
 10
1.6434
 20
0.13523
 10
1.64067
 20
0.12999
 10
1.63503
 20
0.11953
 10
1.62307
 20
0.09873
 10
1.61026
 20
0.07808
 10
1.59662
 20
0.05759
 10
1.58219
 20
0.03728
 10
1.56699
 20
0.01715
 10
1.49686
 20
0.02825
 10
1.48862
 20
0.0521
 10
1.48118
 20
0.07587
 10
1.47454
 20
0.09957
 10
1.46873
 20
0.12317
 10
1.46379
 20
0.14665
 10
1.46165
 20
0.15834
 10
1.46067
 20
0.16417
 10
1.45975
 20
0.16999
 10
1.38607
 20
0.18768
 10
1.38261
 20
0.18291
 10
1.37908
 20
0.17816
 10
1.37188
 20
0.16872
 10
1.35681
 20
0.15004
 10
1.34093
 20
0.13165
 10
1.32425
 20
0.11355
 10
1.30682
 20
0.09574
 10
1.28866
 20
0.07824
 10
1.22113
 20
0.10018
 10
1.21673
 20
0.12502
 10
1.21309
 20
0.14967
 10
1.21024
 20
0.17411
 10
1.2082
 20
0.19833
 10
1.20699
 20
0.22229
 10
1.20671
 20
0.23417
 10
1.20665
 20
0.24008
 10
1.20665
 20
0.24598
 10
1.13665
 20
0.27498
 10
1.13248
 20
0.27081
 10
1.12826
 20
0.26667
 10
1.11966
 20
0.25847
 10
1.10186
 20
0.24237
 10
1.08329
 20
0.2267
 10
1.06399
 20
0.21143
 10
1.04399
 20
0.19657
 10
1.02331
 20
0.18212
 10
0.96005
 20
0.21435
 10
0.95958
 20
0.23957
 10
0.95985
 20
0.26449
 10
0.96086
 20
0.28908
 10
0.96263
 20
0.31332
 10
0.96519
 20
0.33717
 10
0.96677
 20
0.34895
 10
0.96764
 20
0.3548
 10
0.96856
 20
0.36062
 10
0.90395
 20
0.40021
 10
0.89918
 20
0.39675
 10
0.89436
 20
0.39332
 10
0.88459
 20
0.38656
 10
0.86449
 20
0.37346
 10
0.8437
 20
0.36087
 10
0.82225
 20
0.34881
 10
0.80017
 20
0.33726
 10
0.77749
 20
0.32623
 10
0.72004
 20
0.36796
 10
0.72353
 20
0.39295
 10
0.72769
 20
0.41751
 10
0.73253
 20
0.44164
 10
0.73807
 20
0.4653
 10
0.74433
 20
0.48847
 10
0.74773
 20
0.49985
 10
0.74951
 20
0.50549
 10
0.75133
 20
0.5111
 10
0.69371
 20
0.56031
 10
0.68846
 20
0.55764
 10
0.68316
 20
0.555
 10
0.67245
 20
0.54986
 10
0.65055
 20
0.54006
 10
0.62804
 20
0.53088
 10
0.60497
 20
0.52232
 10
0.58136
 20
0.51437
 10
0.55723
 20
0.50702
 10
0.50702
 20
0.55723
 10
0.51437
 20
0.58136
 10
0.52232
 20
0.60497
 10
0.53088
 20
0.62804
 10
0.54006
 20
0.65055
 10
0.54986
 20
0.67245
 10
0.555
 20
0.68316
 10
0.55764
 20
0.68846
 10
0.56031
 20
0.69371
 10
0.5111
 20
0.75133
 10
0.50549
 20
0.74951
 10
0.49985
 20
0.74773
 10
0.48847
 20
0.74433
 10
0.4653
 20
0.73807
 10
0.44164
 20
0.73253
 10
0.41751
 20
0.72769
 10
0.39295
 20
0.72353
 10
0.36796
 20
0.72004
 10
0.32623
 20
0.77749
 10
0.33726
 20
0.80017
 10
0.34881
 20
0.82225
 10
0.36087
 20
0.8437
 10
0.37346
 20
0.86449
 10
0.38656
 20
0.88459
 10
0.39332
 20
0.89436
 10
0.39675
 20
0.89918
 10
0.40021
 20
0.90395
 10
0.36062
 20
0.96856
 10
0.3548
 20
0.96764
 10
0.34895
 20
0.96677
 10
0.33717
 20
0.96519
 10
0.31332
 20
0.96263
 10
0.28908
 20
0.96086
 10
0.26449
 20
0.95985
 10
0.23957
 20
0.95958
 10
0.21435
 20
0.96005
 10
0.18212
 20
1.02331
 10
0.19657
 20
1.04399
 10
0.21143
 20
1.06399
 10
0.2267
 20
1.08329
 10
0.24237
 20
1.10186
 10
0.25847
 20
1.11966
 10
0.26667
 20
1.12826
 10
0.27081
 20
1.13248
 10
0.27498
 20
1.13665
 10
0.24598
 20
1.20665
 10
0.24008
 20
1.20665
 10
0.23417
 20
1.20671
 10
0.22229
 20
1.20699
 10
0.19833
 20
1.2082
 10
0.17411
 20
1.21024
 10
0.14967
 20
1.21309
 10
0.12502
 20
1.21673
 10
0.10018
 20
1.22113
 10
0.07824
 20
1.28866
 10
0.09574
 20
1.30682
 10
0.11355
 20
1.32425
 10
0.13165
 20
1.34093
 10
0.15004
 20
1.35681
 10
0.16872
 20
1.37188
 10
0.17816
 20
1.37908
 10
0.18291
 20
1.38261
 10
0.18768
 20
1.38607
 10
0.16999
 20
1.45975
 10
0.16417
 20
1.46067
 10
0.15834
 20
1.46165
 10
0.14665
 20
1.46379
 10
0.12317
 20
1.46873
 10
0.09957
 20
1.47454
 10
0.07587
 20
1.48118
 10
0.0521
 20
1.48862
 10
0.02825
 20
1.49686
 10
0.01715
 20
1.56699
 10
0.03728
 20
1.58219
 10
0.05759
 20
1.59662
 10
0.07808
 20
1.61026
 10
0.09873
 20
1.62307
 10
0.11953
 20
1.63503
 10
0.12999
 20
1.64067
 10
0.13523
 20
1.6434
 10
0.14048
 20
1.64608
 10
0.13454
 20
1.72162
 10
0.12893
 20
1.72344
 10
0.12333
 20
1.72532
 10
0.11211
 20
1.72926
 10
0.0897
 20
1.73782
 10
0.0673
 20
1.74724
 10
0.04493
 20
1.75751
 10
0.02261
 20
1.76858
 10
0.00035
 20
1.78044
 10
0.00035
 20
1.85145
 10
0.02261
 20
1.86331
 10
0.04493
 20
1.87439
 10
0.0673
 20
1.88465
 10
0.0897
 20
1.89408
 10
0.11211
 20
1.90263
 10
0.12333
 20
1.90657
 10
0.12893
 20
1.90845
 10
0.13454
 20
1.91027
 10
0.14048
 20
1.98581
 10
0.13523
 20
1.98849
 10
0.12999
 20
1.99122
 10
0.11953
 20
1.99687
 10
0.09873
 20
2.00882
 10
0.07808
 20
2.02164
 10
0.05759
 20
2.03527
 10
0.03728
 20
2.0497
 10
0.01715
 20
2.0649
 10
0.02825
 20
2.13503
 10
0.0521
 20
2.14327
 10
0.07587
 20
2.15072
 10
0.09957
 20
2.15735
 10
0.12317
 20
2.16316
 10
0.14665
 20
2.1681
 10
0.15834
 20
2.17024
 10
0.16417
 20
2.17122
 10
0.16999
 20
2.17214
 10
0.18768
 20
2.24582
 10
0.18291
 20
2.24929
 10
0.17816
 20
2.25281
 10
0.16872
 20
2.26002
 10
0.15004
 20
2.27508
 10
0.13165
 20
2.29097
 10
0.11355
 20
2.30764
 10
0.09574
 20
2.32507
 10
0.07824
 20
2.34323
 10
0.10018
 20
2.41076
 10
0.12502
 20
2.41517
 10
0.14967
 20
2.4188
 10
0.17411
 20
2.42165
 10
0.19833
 20
2.42369
 10
0.22229
 20
2.4249
 10
0.23417
 20
2.42518
 10
0.24008
 20
2.42524
 10
0.24598
 20
2.42524
 10
0.27498
 20
2.49525
 10
0.27081
 20
2.49941
 10
0.26667
 20
2.50363
 10
0.25847
 20
2.51223
 10
0.24237
 20
2.53003
 10
0.2267
 20
2.5486
 10
0.21143
 20
2.5679
 10
0.19657
 20
2.5879
 10
0.18212
 20
2.60858
 10
0.21435
 20
2.67184
 10
0.23957
 20
2.67231
 10
0.26449
 20
2.67204
 10
0.28908
 20
2.67103
 10
0.31332
 20
2.66926
 10
0.33717
 20
2.66671
 10
0.34895
 20
2.66513
 10
0.3548
 20
2.66426
 10
0.36062
 20
2.66333
 10
0.40021
 20
2.72794
 10
0.39675
 20
2.73271
 10
0.39332
 20
2.73753
 10
0.38656
 20
2.7473
 10
0.37346
 20
2.7674
 10
0.36087
 20
2.78819
 10
0.34881
 20
2.80964
 10
0.33726
 20
2.83172
 10
0.32623
 20
2.85441
 10
0.36796
 20
2.91185
 10
0.39295
 20
2.90836
 10
0.41751
 20
2.9042
 10
0.44164
 20
2.89936
 10
0.4653
 20
2.89382
 10
0.48847
 20
2.88756
 10
0.49985
 20
2.88416
 10
0.50549
 20
2.88239
 10
0.5111
 20
2.88056
 10
0.56031
 20
2.93818
 10
0.55764
 20
2.94344
 10
0.555
 20
2.94873
 10
0.54986
 20
2.95944
 10
0.54006
 20
2.98134
 10
0.53088
 20
3.00385
 10
0.52232
 20
3.02692
 10
0.51437
 20
3.05054
 10
0.50702
 20
3.07466
 10
0.55723
 20
3.12487
 10
0.58136
 20
3.11752
 10
0.60497
 20
3.10957
 10
0.62804
 20
3.10101
 10
0.65055
 20
3.09184
 10
0.67245
 20
3.08203
 10
0.68316
 20
3.07689
 10
0.68846
 20
3.07426
 10
0.69371
 20
3.07158
 10
0.75133
 20
3.12079
 10
0.74951
 20
3.1264
 10
0.74773
 20
3.13204
 10
0.74433
 20
3.14342
 10
0.73807
 20
3.16659
 10
0.73253
 20
3.19025
 10
0.72769
 20
3.21438
 10
0.72353
 20
3.23895
 10
0.72004
 20
3.26393
 10
0.77749
 20
3.30566
 10
0.80017
 20
3.29463
 10
0.82225
 20
3.28308
 10
0.8437
 20
3.27102
 10
0.86449
 20
3.25844
 10
0.88459
 20
3.24533
 10
0.89436
 20
3.23857
 10
0.89918
 20
3.23514
 10
0.90395
 20
3.23168
 10
0.96856
 20
3.27127
 10
0.96764
 20
3.27709
 10
0.96677
 20
3.28294
 10
0.96519
 20
3.29472
 10
0.96263
 20
3.31858
 10
0.96086
 20
3.34281
 10
0.95985
 20
3.3674
 10
0.95958
 20
3.39232
 10
0.96005
 20
3.41754
 10
1.02331
 20
3.44977
 10
1.04399
 20
3.43533
 10
1.06399
 20
3.42047
 10
1.08329
 20
3.4052
 10
1.10186
 20
3.38952
 10
1.11966
 20
3.37343
 10
1.12826
 20
3.36522
 10
1.13248
 20
3.36108
 10
1.13665
 20
3.35692
 10
1.20665
 20
3.38591
 10
1.20665
 20
3.39181
 10
1.20671
 20
3.39772
 10
1.20699
 20
3.4096
 10
1.2082
 20
3.43356
 10
1.21024
 20
3.45778
 10
1.21309
 20
3.48223
 10
1.21673
 20
3.50688
 10
1.22113
 20
3.53171
 10
1.28866
 20
3.55365
 10
1.30682
 20
3.53615
 10
1.32425
 20
3.51834
 10
1.34093
 20
3.50024
 10
1.35681
 20
3.48185
 10
1.37188
 20
3.46317
 10
1.37908
 20
3.45373
 10
1.38261
 20
3.44898
 10
1.38607
 20
3.44421
 10
1.45975
 20
3.4619
 10
1.46067
 20
3.46772
 10
1.46165
 20
3.47355
 10
1.46379
 20
3.48524
 10
1.46873
 20
3.50872
 10
1.47454
 20
3.53232
 10
1.48118
 20
3.55602
 10
1.48862
 20
3.5798
 10
1.49686
 20
3.60364
 10
1.56699
 20
3.61475
 10
1.58219
 20
3.59462
 10
1.59662
 20
3.5743
 10
1.61026
 20
3.55382
 10
1.62307
 20
3.53317
 10
1.63503
 20
3.51236
 10
1.64067
 20
3.5019
 10
1.6434
 20
3.49666
 10
1.64608
 20
3.49141
 10
1.72162
 20
3.49736
 10
1.72344
 20
3.50296
 10
1.72532
 20
3.50857
 10
1.72926
 20
3.51978
 10
1.73782
 20
3.5422
 10
1.74724
 20
3.5646
 10
1.75751
 20
3.58696
 10
1.76858
 20
3.60928
 10
1.78044
 20
3.63154
 10
1.85145
 20
3.63154
 10
1.86331
 20
3.60928
 10
1.87439
 20
3.58696
 10
1.88465
 20
3.5646
 10
1.89408
 20
3.5422
 10
1.90263
 20
3.51978
 10
1.90657
 20
3.50857
 10
1.90845
 20
3.50296
 10
1.91027
 20
3.49736
 10
1.98581
 20
3.49141
 10
1.98849
 20
3.49666
 10
1.99122
 20
3.5019
 10
1.99687
 20
3.51236
 10
2.00882
 20
3.53317
 10
2.02164
 20
3.55382
 10
2.03527
 20
3.5743
 10
2.0497
 20
3.59462
 10
2.0649
 20
3.61475
 10
2.13503
 20
3.60364
 10
2.14327
 20
3.5798
 10
2.15072
 20
3.55602
 10
2.15735
 20
3.53232
 10
2.16316
 20
3.50872
 10
2.1681
 20
3.48524
 10
2.17024
 20
3.47355
 10
2.17122
 20
3.46772
 10
2.17214
 20
3.4619
 10
2.24582
 20
3.44421
 10
2.24929
 20
3.44898
 10
2.25281
 20
3.45373
 10
2.26002
 20
3.46317
 10
2.27508
 20
3.48185
 10
2.29097
 20
3.50024
 10
2.30764
 20
3.51834
 10
2.32507
 20
3.53615
 10
2.34323
 20
3.55365
 10
2.41076
 20
3.53171
 10
2.41517
 20
3.50688
 10
2.4188
 20
3.48223
 10
2.42165
 20
3.45778
 10
2.42369
 20
3.43356
 10
2.4249
 20
3.4096
 10
2.42518
 20
3.39772
 10
2.42524
 20
3.39181
 10
2.42524
 20
3.38591
 10
2.49525
 20
3.35692
 10
2.49941
 20
3.36108
 10
2.50363
 20
3.36522
 10
2.51223
 20
3.37343
 10
2.53003
 20
3.38952
 10
2.5486
 20
3.4052
 10
2.5679
 20
3.42047
 10
2.5879
 20
3.43533
 10
2.60858
 20
3.44977
 10
2.67184
 20
3.41754
 10
2.67231
 20
3.39232
 10
2.67204
 20
3.3674
 10
2.67103
 20
3.34281
 10
2.66926
 20
3.31858
 10
2.66671
 20
3.29472
 10
2.66513
 20
3.28294
 10
2.66426
 20
3.27709
 10
2.66333
 20
3.27127
 10
2.72794
 20
3.23168
 10
2.73271
 20
3.23514
 10
2.73753
 20
3.23857
 10
2.7473
 20
3.24533
 10
2.7674
 20
3.25844
 10
2.78819
 20
3.27102
 10
2.80964
 20
3.28308
 10
2.83172
 20
3.29463
 10
2.85441
 20
3.30566
 10
2.91185
 20
3.26393
 10
2.90836
 20
3.23895
 10
2.9042
 20
3.21438
 10
2.89936
 20
3.19025
 10
2.89382
 20
3.16659
 10
2.88756
 20
3.14342
 10
2.88416
 20
3.13204
 10
2.88239
 20
3.1264
 10
2.88056
 20
3.12079
 10
2.93818
 20
3.07158
 10
2.94344
 20
3.07426
 10
2.94873
 20
3.07689
 10
2.95944
 20
3.08203
 10
2.98134
 20
3.09184
 10
3.00385
 20
3.10101
 10
3.02692
 20
3.10957
 10
3.05054
 20
3.11752
 10
3.07466
 20
3.12487
 10
3.12487
 20
3.07466
 10
3.11752
 20
3.05054
 10
3.10957
 20
3.02692
 10
3.10101
 20
3.00385
 10
3.09184
 20
2.98134
 10
3.08203
 20
2.95944
 10
3.07689
 20
2.94873
 10
3.07426
 20
2.94344
 10
3.07158
 20
2.93818
 10
3.12079
 20
2.88056
 10
3.1264
 20
2.88239
 10
3.13204
 20
2.88416
 10
3.14342
 20
2.88756
 10
3.16659
 20
2.89382
 10
3.19025
 20
2.89936
 10
3.21438
 20
2.9042
 10
3.23895
 20
2.90836
 10
3.26393
 20
2.91185
 10
3.30566
 20
2.85441
 10
3.29463
 20
2.83172
 10
3.28308
 20
2.80964
 10
3.27102
 20
2.78819
 10
3.25844
 20
2.7674
 10
3.24533
 20
2.7473
 10
3.23857
 20
2.73753
 10
3.23514
 20
2.73271
 10
3.23168
 20
2.72794
 10
3.27127
 20
2.66333
 10
3.27709
 20
2.66426
 10
3.28294
 20
2.66513
 10
3.29472
 20
2.66671
 10
3.31858
 20
2.66926
 10
3.34281
 20
2.67103
 10
3.3674
 20
2.67204
 10
3.39232
 20
2.67231
 10
3.41754
 20
2.67184
 10
3.44977
 20
2.60858
 10
3.43533
 20
2.5879
 10
3.42047
 20
2.5679
 10
3.4052
 20
2.5486
 10
3.38952
 20
2.53003
 10
3.37343
 20
2.51223
 10
3.36522
 20
2.50363
 10
3.36108
 20
2.49941
 10
3.35692
 20
2.49525
 10
3.38591
 20
2.42524
 10
3.39181
 20
2.42524
 10
3.39772
 20
2.42518
 10
3.4096
 20
2.4249
 10
3.43356
 20
2.42369
 10
3.45778
 20
2.42165
 10
3.48223
 20
2.4188
 10
3.50688
 20
2.41517
 10
3.53171
 20
2.41076
 10
3.55365
 20
2.34323
 10
3.53615
 20
2.32507
 10
3.51834
 20
2.30764
 10
3.50024
 20
2.29097
 10
3.48185
 20
2.27508
 10
3.46317
 20
2.26002
 10
3.45373
 20
2.25281
 10
3.44898
 20
2.24929
 10
3.44421
 20
2.24582
 10
3.4619
 20
2.17214
 10
3.46772
 20
2.17122
 10
3.47355
 20
2.17024
 10
3.48524
 20
2.1681
 10
3.50872
 20
2.16316
 10
3.53232
 20
2.15735
 10
3.55602
 20
2.15072
 10
3.5798
 20
2.14327
 10
3.60364
 20
2.13503
 10
3.61475
 20
2.0649
 10
3.59462
 20
2.0497
 10
3.5743
 20
2.03527
 10
3.55382
 20
2.02164
 10
3.53317
 20
2.00882
 10
3.51236
 20
1.99687
 10
3.5019
 20
1.99122
 10
3.49666
 20
1.98849
 10
3.49141
 20
1.98581
 0
CIRCLE
 8
profile
 10
1.81595
 20
1.81595
 40
0.125
 0
LWPOLYLINE
 8
profile
 90
600
 70
1
 10
3.63287
 20
1.85568
 10
3.62962
 20
1.85667
 10
3.62637
 20
1.85771
 10
3.62312
 20
1.85881
 10
3.61988
 20
1.85997
 10
3.61341
 20
1.86243
 10
3.60696
 20
1.86509
 10
3.59411
 20
1.87094
 10
3.58133
 20
1.87745
 10
3.56864
 20
1.8846
 10
3.55605
 20
1.89234
 10
3.54356
 20
1.90065
 10
3.53118
 20
1.90952
 10
3.51892
 20
1.91892
 10
3.5068
 20
1.92885
 10
3.51763
 20
1.99724
 10
3.53223
 20
2.00293
 10
3.54679
 20
2.00809
 10
3.5613
 20
2.01269
 10
3.57575
 20
2.01674
 10
3.59012
 20
2.02021
 10
3.6044
 20
2.02308
 10
3.61856
 20
2.02534
 10
3.63259
 20
2.02693
 10
3.63955
 20
2.02746
 10
3.64646
 20
2.0278
 10
3.6499
 20
2.0279
 10
3.65333
 20
2.02794
 10
3.65674
 20
2.02793
 10
3.66014
 20
2.02787
 10
3.6847
 20
2.10344
 10
3.68191
 20
2.10539
 10
3.67914
 20
2.10739
 10
3.6764
 20
2.10944
 10
3.67367
 20
2.11154
 10
3.66828
 20
2.11588
 10
3.66296
 20
2.1204
 10
3.65255
 20
2.12993
 10
3.64241
 20
2.14008
 10
3.63255
 20
2.15079
 10
3.62296
 20
2.16205
 10
3.61365
 20
2.17382
 10
3.60462
 20
2.18607
 10
3.59587
 20
2.1988
 10
3.58741
 20
2.21199
 10
3.61884
 20
2.27368
 10
3.63448
 20
2.27459
 10
3.64993
 20
2.27499
 10
3.66515
 20
2.27489
 10
3.68015
 20
2.27427
 10
3.69489
 20
2.27313
 10
3.70935
 20
2.27145
 10
3.72352
 20
2.26922
 10
3.73735
 20
2.26639
 10
3.74413
 20
2.26475
 10
3.75081
 20
2.26294
 10
3.75412
 20
2.26197
 10
3.75739
 20
2.26095
 10
3.76063
 20
2.25989
 10
3.76384
 20
2.25878
 10
3.81055
 20
2.32307
 10
3.8085
 20
2.32578
 10
3.80649
 20
2.32853
 10
3.80451
 20
2.33133
 10
3.80257
 20
2.33417
 10
3.79878
 20
2.33997
 10
3.79512
 20
2.34591
 10
3.78816
 20
2.35819
 10
3.78166
 20
2.37097
 10
3.77559
 20
2.38421
 10
3.76995
 20
2.39788
 10
3.76473
 20
2.41195
 10
3.75993
 20
2.4264
 10
3.75554
 20
2.44121
 10
3.75157
 20
2.45637
 10
3.80053
 20
2.50532
 10
3.81568
 20
2.50135
 10
3.83049
 20
2.49696
 10
3.84494
 20
2.49216
 10
3.85901
 20
2.48694
 10
3.87268
 20
2.4813
 10
3.88592
 20
2.47523
 10
3.8987
 20
2.46873
 10
3.91098
 20
2.46177
 10
3.91693
 20
2.45811
 10
3.92272
 20
2.45432
 10
3.92556
 20
2.45238
 10
3.92836
 20
2.4504
 10
3.93111
 20
2.44839
 10
3.93383
 20
2.44634
 10
3.99811
 20
2.49305
 10
3.997
 20
2.49626
 10
3.99594
 20
2.4995
 10
3.99492
 20
2.50278
 10
3.99395
 20
2.50608
 10
3.99214
 20
2.51276
 10
3.9905
 20
2.51954
 10
3.98767
 20
2.53337
 10
3.98544
 20
2.54754
 10
3.98376
 20
2.56201
 10
3.98262
 20
2.57675
 10
3.982
 20
2.59174
 10
3.9819
 20
2.60697
 10
3.9823
 20
2.62241
 10
3.98321
 20
2.63805
 10
4.0449
 20
2.66948
 10
4.05809
 20
2.66102
 10
4.07082
 20
2.65227
 10
4.08308
 20
2.64324
 10
4.09484
 20
2.63393
 10
4.1061
 20
2.62434
 10
4.11681
 20
2.61448
 10
4.12696
 20
2.60434
 10
4.13649
 20
2.59393
 10
4.14101
 20
2.58861
 10
4.14535
 20
2.58322
 10
4.14745
 20
2.58049
 10
4.1495
 20
2.57775
 10
4.1515
 20
2.57498
 10
4.15345
 20
2.5722
 10
4.22902
 20
2.59675
 10
4.22896
 20
2.60015
 10
4.22895
 20
2.60356
 10
4.229
 20
2.60699
 10
4.22909
 20
2.61043
 10
4.22944
 20
2.61734
 10
4.22997
 20
2.6243
 10
4.23156
 20
2.63833
 10
4.23381
 20
2.65249
 10
4.23668
 20
2.66677
 10
4.24015
 20
2.68114
 10
4.2442
 20
2.69559
 10
4.24881
 20
2.7101
 10
4.25396
 20
2.72466
 10
4.25966
 20
2.73926
 10
4.32804
 20
2.75009
 10
4.33797
 20
2.73797
 10
4.34737
 20
2.72571
 10
4.35624
 20
2.71334
 10
4.36455
 20
2.70084
 10
4.37229
 20
2.68825
 10
4.37944
 20
2.67556
 10
4.38596
 20
2.66278
 10
4.3918
 20
2.64993
 10
4.39446
 20
2.64348
 10
4.39692
 20
2.63701
 10
4.39808
 20
2.63377
 10
4.39918
 20
2.63052
 10
4.40023
 20
2.62728
 10
4.40121
 20
2.62402
 10
4.48068
 20
2.62402
 10
4.48167
 20
2.62728
 10
4.48271
 20
2.63052
 10
4.48381
 20
2.63377
 10
4.48497
 20
2.63701
 10
4.48743
 20
2.64348
 10
4.49009
 20
2.64993
 10
4.49594
 20
2.66278
 10
4.50245
 20
2.67556
 10
4.5096
 20
2.68825
 10
4.51734
 20
2.70084
 10
4.52565
 20
2.71334
 10
4.53452
 20
2.72571
 10
4.54392
 20
2.73797
 10
4.55385
 20
2.75009
 10
4.62224
 20
2.73926
 10
4.62793
 20
2.72466
 10
4.63309
 20
2.7101
 10
4.63769
 20
2.69559
 10
4.64174
 20
2.68114
 10
4.64521
 20
2.66677
 10
4.64808
 20
2.65249
 10
4.65034
 20
2.63833
 10
4.65193
 20
2.6243
 10
4.65246
 20
2.61734
 10
4.6528
 20
2.61043
 10
4.6529
 20
2.60699
 10
4.65294
 20
2.60356
 10
4.65293
 20
2.60015
 10
4.65287
 20
2.59675
 10
4.72844
 20
2.5722
 10
4.73039
 20
2.57498
 10
4.73239
 20
2.57775
 10
4.73444
 20
2.58049
 10
4.73654
 20
2.58322
 10
4.74088
 20
2.58861
 10
4.7454
 20
2.59393
 10
4.75493
 20
2.60434
 10
4.76508
 20
2.61448
 10
4.77579
 20
2.62434
 10
4.78705
 20
2.63393
 10
4.79882
 20
2.64324
 10
4.81107
 20
2.65227
 10
4.8238
 20
2.66102
 10
4.83699
 20
2.66948
 10
4.89868
 20
2.63805
 10
4.89959
 20
2.62241
 10
4.89999
 20
2.60697
 10
4.89989
 20
2.59174
 10
4.89927
 20
2.57675
 10
4.89813
 20
2.56201
 10
4.89645
 20
2.54754
 10
4.89422
 20
2.53337
 10
4.89139
 20
2.51954
 10
4.88975
 20
2.51276
 10
4.88794
 20
2.50608
 10
4.88697
 20
2.50278
 10
4.88595
 20
2.4995
 10
4.88489
 20
2.49626
 10
4.88378
 20
2.49305
 10
4.94807
 20
2.44634
 10
4.95078
 20
2.44839
 10
4.95353
 20
2.4504
 10
4.95633
 20
2.45238
 10
4.95917
 20
2.45432
 10
4.96497
 20
2.45811
 10
4.97091
 20
2.46177
 10
4.98319
 20
2.46873
 10
4.99597
 20
2.47523
 10
5.00921
 20
2.4813
 10
5.02288
 20
2.48694
 10
5.03695
 20
2.49216
 10
5.0514
 20
2.49696
 10
5.06621
 20
2.50135
 10
5.08137
 20
2.50532
 10
5.13032
 20
2.45637
 10
5.12635
 20
2.44121
 10
5.12196
 20
2.4264
 10
5.11716
 20
2.41195
 10
5.11194
 20
2.39788
 10
5.1063
 20
2.38421
 10
5.10023
 20
2.37097
 10
5.09373
 20
2.35819
 10
5.08677
 20
2.34591
 10
5.08311
 20
2.33997
 10
5.07932
 20
2.33417
 10
5.07738
 20
2.33133
 10
5.0754
 20
2.32853
 10
5.07339
 20
2.32578
 10
5.07134
 20
2.32307
 10
5.11805
 20
2.25878
 10
5.12126
 20
2.25989
 10
5.1245
 20
2.26095
 10
5.12778
 20
2.26197
 10
5.13108
 20
2.26294
 10
5.13776
 20
2.26475
 10
5.14454
 20
2.26639
 10
5.15837
 20
2.26922
 10
5.17254
 20
2.27145
 10
5.18701
 20
2.27313
 10
5.20175
 20
2.27427
 10
5.21674
 20
2.27489
 10
5.23197
 20
2.27499
 10
5.24741
 20
2.27459
 10
5.26305
 20
2.27368
 10
5.29448
 20
2.21199
 10
5.28602
 20
2.1988
 10
5.27727
 20
2.18607
 10
5.26824
 20
2.17382
 10
5.25893
 20
2.16205
 10
5.24934
 20
2.15079
 10
5.23948
 20
2.14008
 10
5.22934
 20
2.12993
 10
5.21893
 20
2.1204
 10
5.21361
 20
2.11588
 10
5.20822
 20
2.11154
 10
5.20549
 20
2.10944
 10
5.20275
 20
2.10739
 10
5.19998
 20
2.10539
 10
5.1972
 20
2.10344
 10
5.22175
 20
2.02787
 10
5.22515
 20
2.02793
 10
5.22856
 20
2.02794
 10
5.23199
 20
2.0279
 10
5.23543
 20
2.0278
 10
5.24234
 20
2.02746
 10
5.2493
 20
2.02693
 10
5.26333
 20
2.02534
 10
5.27749
 20
2.02308
 10
5.29177
 20
2.02021
 10
5.30614
 20
2.01674
 10
5.32059
 20
2.01269
 10
5.3351
 20
2.00809
 10
5.34966
 20
2.00293
 10
5.36426
 20
1.99724
 10
5.37509
 20
1.92885
 10
5.36297
 20
1.91892
 10
5.35071
 20
1.90952
 10
5.33834
 20
1.90065
 10
5.32584
 20
1.89234
 10
5.31325
 20
1.8846
 10
5.30056
 20
1.87745
 10
5.28778
 20
1.87094
 10
5.27493
 20
1.86509
 10
5.26848
 20
1.86243
 10
5.26201
 20
1.85997
 10
5.25877
 20
1.85881
 10
5.25552
 20
1.85771
 10
5.25228
 20
1.85667
 10
5.24902
 20
1.85568
 10
5.24902
 20
1.77621
 10
5.25228
 20
1.77523
 10
5.25552
 20
1.77418
 10
5.25877
 20
1.77308
 10
5.26201
 20
1.77192
 10
5.26848
 20
1.76946
 10
5.27493
 20
1.7668
 10
5.28778
 20
1.76096
 10
5.30056
 20
1.75444
 10
5.31325
 20
1.74729
 10
5.32584
 20
1.73955
 10
5.33834
 20
1.73124
 10
5.35071
 20
1.72237
 10
5.36297
 20
1.71297
 10
5.37509
 20
1.70304
 10
5.36426
 20
1.63466
 10
5.34966
 20
1.62896
 10
5.3351
 20
1.62381
 10
5.32059
 20
1.6192
 10
5.30614
 20
1.61515
 10
5.29177
 20
1.61168
 10
5.27749
 20
1.60881
 10
5.26333
 20
1.60656
 10
5.2493
 20
1.60497
 10
5.24234
 20
1.60444
 10
5.23543
 20
1.60409
 10
5.23199
 20
1.604
 10
5.22856
 20
1.60395
 10
5.22515
 20
1.60396
 10
5.22175
 20
1.60402
 10
5.1972
 20
1.52845
 10
5.19998
 20
1.5265
 10
5.20275
 20
1.5245
 10
5.20549
 20
1.52245
 10
5.20822
 20
1.52035
 10
5.21361
 20
1.51601
 10
5.21893
 20
1.51149
 10
5.22934
 20
1.50196
 10
5.23948
 20
1.49181
 10
5.24934
 20
1.4811
 10
5.25893
 20
1.46984
 10
5.26824
 20
1.45808
 10
5.27727
 20
1.44582
 10
5.28602
 20
1.43309
 10
5.29448
 20
1.4199
 10
5.26305
 20
1.35821
 10
5.24741
 20
1.3573
 10
5.23197
 20
1.3569
 10
5.21674
 20
1.357
 10
5.20175
 20
1.35762
 10
5.18701
 20
1.35876
 10
5.17254
 20
1.36044
 10
5.15837
 20
1.36267
 10
5.14454
 20
1.3655
 10
5.13776
 20
1.36714
 10
5.13108
 20
1.36895
 10
5.12778
 20
1.36992
 10
5.1245
 20
1.37094
 10
5.12126
 20
1.372
 10
5.11805
 20
1.37311
 10
5.07134
 20
1.30883
 10
5.07339
 20
1.30611
 10
5.0754
 20
1.30336
 10
5.07738
 20
1.30056
 10
5.07932
 20
1.29772
 10
5.08311
 20
1.29193
 10
5.08677
 20
1.28598
 10
5.09373
 20
1.2737
 10
5.10023
 20
1.26092
 10
5.1063
 20
1.24768
 10
5.11194
 20
1.23401
 10
5.11716
 20
1.21994
 10
5.12196
 20
1.20549
 10
5.12635
 20
1.19068
 10
5.13032
 20
1.17553
 10
5.08137
 20
1.12657
 10
5.06621
 20
1.13054
 10
5.0514
 20
1.13493
 10
5.03695
 20
1.13973
 10
5.02288
 20
1.14495
 10
5.00921
 20
1.15059
 10
4.99597
 20
1.15666
 10
4.98319
 20
1.16316
 10
4.97091
 20
1.17012
 10
4.96497
 20
1.17378
 10
4.95917
 20
1.17757
 10
4.95633
 20
1.17951
 10
4.95353
 20
1.18149
 10
4.95078
 20
1.1835
 10
4.94807
 20
1.18555
 10
4.88378
 20
1.13884
 10
4.88489
 20
1.13563
 10
4.88595
 20
1.13239
 10
4.88697
 20
1.12912
 10
4.88794
 20
1.12581
 10
4.88975
 20
1.11913
 10
4.89139
 20
1.11235
 10
4.89422
 20
1.09852
 10
4.89645
 20
1.08435
 10
4.89813
 20
1.06989
 10
4.89927
 20
1.05515
 10
4.89989
 20
1.04015
 10
4.89999
 20
1.02493
 10
4.89959
 20
1.00948
 10
4.89868
 20
0.99384
 10
4.83699
 20
0.96241
 10
4.8238
 20
0.97087
 10
4.81107
 20
0.97962
 10
4.79882
 20
0.98865
 10
4.78705
 20
0.99796
 10
4.77579
 20
1.00755
 10
4.76508
 20
1.01741
 10
4.75493
 20
1.02755
 10
4.7454
 20
1.03796
 10
4.74088
 20
1.04328
 10
4.73654
 20
1.04867
 10
4.73444
 20
1.0514
 10
4.73239
 20
1.05414
 10
4.73039
 20
1.05691
 10
4.72844
 20
1.0597
 10
4.65287
 20
1.03514
 10
4.65293
 20
1.03174
 10
4.65294
 20
1.02833
 10
4.6529
 20
1.0249
 10
4.6528
 20
1.02146
 10
4.65246
 20
1.01455
 10
4.65193
 20
1.00759
 10
4.65034
 20
0.99356
 10
4.64808
 20
0.9794
 10
4.64521
 20
0.96512
 10
4.64174
 20
0.95075
 10
4.63769
 20
0.9363
 10
4.63309
 20
0.92179
 10
4.62793
 20
0.90723
 10
4.62224
 20
0.89263
 10
4.55385
 20
0.8818
 10
4.54392
 20
0.89392
 10
4.53452
 20
0.90618
 10
4.52565
 20
0.91856
 10
4.51734
 20
0.93105
 10
4.5096
 20
0.94364
 10
4.50245
 20
0.95633
 10
4.49594
 20
0.96911
 10
4.49009
 20
0.98196
 10
4.48743
 20
0.98841
 10
4.48497
 20
0.99488
 10
4.48381
 20
0.99812
 10
4.48271
 20
1.00137
 10
4.48167
 20
1.00462
 10
4.48068
 20
1.00787
 10
4.40121
 20
1.00787
 10
4.40023
 20
1.00462
 10
4.39918
 20
1.00137
 10
4.39808
 20
0.99812
 10
4.39692
 20
0.99488
 10
4.39446
 20
0.98841
 10
4.3918
 20
0.98196
 10
4.38596
 20
0.96911
 10
4.37944
 20
0.95633
 10
4.37229
 20
0.94364
 10
4.36455
 20
0.93105
 10
4.35624
 20
0.91856
 10
4.34737
 20
0.90618
 10
4.33797
 20
0.89392
 10
4.32804
 20
0.8818
 10
4.25966
 20
0.89263
 10
4.25396
 20
0.90723
 10
4.24881
 20
0.92179
 10
4.2442
 20
0.9363
 10
4.24015
 20
0.95075
 10
4.23668
 20
0.96512
 10
4.23381
 20
0.9794
 10
4.23156
 20
0.99356
 10
4.22997
 20
1.00759
 10
4.22944
 20
1.01455
 10
4.22909
 20
1.02146
 10
4.229
 20
1.0249
 10
4.22895
 20
1.02833
 10
4.22896
 20
1.03174
 10
4.22902
 20
1.03514
 10
4.15345
 20
1.0597
 10
4.1515
 20
1.05691
 10
4.1495
 20
1.05414
 10
4.14745
 20
1.0514
 10
4.14535
 20
1.04867
 10
4.14101
 20
1.04328
 10
4.13649
 20
1.03796
 10
4.12696
 20
1.02755
 10
4.11681
 20
1.01741
 10
4.1061
 20
1.00755
 10
4.09484
 20
0.99796
 10
4.08308
 20
0.98865
 10
4.07082
 20
0.97962
 10
4.05809
 20
0.97087
 10
4.0449
 20
0.96241
 10
3.98321
 20
0.99384
 10
3.9823
 20
1.00948
 10
3.9819
 20
1.02493
 10
3.982
 20
1.04015
 10
3.98262
 20
1.05515
 10
3.98376
 20
1.06989
 10
3.98544
 20
1.08435
 10
3.98767
 20
1.09852
 10
3.9905
 20
1.11235
 10
3.99214
 20
1.11913
 10
3.99395
 20
1.12581
 10
3.99492
 20
1.12912
 10
3.99594
 20
1.13239
 10
3.997
 20
1.13563
 10
3.99811
 20
1.13884
 10
3.93383
 20
1.18555
 10
3.93111
 20
1.1835
 10
3.92836
 20
1.18149
 10
3.92556
 20
1.17951
 10
3.92272
 20
1.17757
 10
3.91693
 20
1.17378
 10
3.91098
 20
1.17012
 10
3.8987
 20
1.16316
 10
3.88592
 20
1.15666
 10
3.87268
 20
1.15059
 10
3.85901
 20
1.14495
 10
3.84494
 20
1.13973
 10
3.83049
 20
1.13493
 10
3.81568
 20
1.13054
 10
3.80053
 20
1.12657
 10
3.75157
 20
1.17553
 10
3.75554
 20
1.19068
 10
3.75993
 20
1.20549
 10
3.76473
 20
1.21994
 10
3.76995
 20
1.23401
 10
3.77559
 20
1.24768
 10
3.78166
 20
1.26092
 10
3.78816
 20
1.2737
 10
3.79512
 20
1.28598
 10
3.79878
 20
1.29193
 10
3.80257
 20
1.29772
 10
3.80451
 20
1.30056
 10
3.80649
 20
1.30336
 10
3.8085
 20
1.30611
 10
3.81055
 20
1.30883
 10
3.76384
 20
1.37311
 10
3.76063
 20
1.372
 10
3.75739
 20
1.37094
 10
3.75412
 20
1.36992
 10
3.75081
 20
1.36895
 10
3.74413
 20
1.36714
 10
3.73735
 20
1.3655
 10
3.72352
 20
1.36267
 10
3.70935
 20
1.36044
 10
3.69489
 20
1.35876
 10
3.68015
 20
1.35762
 10
3.66515
 20
1.357
 10
3.64993
 20
1.3569
 10
3.63448
 20
1.3573
 10
3.61884
 20
1.35821
 10
3.58741
 20
1.4199
 10
3.59587
 20
1.43309
 10
3.60462
 20
1.44582
 10
3.61365
 20
1.45808
 10
3.62296
 20
1.46984
 10
3.63255
 20
1.4811
 10
3.64241
 20
1.49181
 10
3.65255
 20
1.50196
 10
3.66296
 20
1.51149
 10
3.66828
 20
1.51601
 10
3.67367
 20
1.52035
 10
3.6764
 20
1.52245
 10
3.67914
 20
1.5245
 10
3.68191
 20
1.5265
 10
3.6847
 20
1.52845
 10
3.66014
 20
1.60402
 10
3.65674
 20
1.60396
 10
3.65333
 20
1.60395
 10
3.6499
 20
1.604
 10
3.64646
 20
1.60409
 10
3.63955
 20
1.60444
 10
3.63259
 20
1.60497
 10
3.61856
 20
1.60656
 10
3.6044
 20
1.60881
 10
3.59012
 20
1.61168
 10
3.57575
 20
1.61515
 10
3.5613
 20
1.6192
 10
3.54679
 20
1.62381
 10
3.53223
 20
1.62896
 10
3.51763
 20
1.63466
 10
3.5068
 20
1.70304
 10
3.51892
 20
1.71297
 10
3.53118
 20
1.72237
 10
3.54356
 20
1.73124
 10
3.55605
 20
1.73955
 10
3.56864
 20
1.74729
 10
3.58133
 20
1.75444
 10
3.59411
 20
1.76096
 10
3.60696
 20
1.7668
 10
3.61341
 20
1.76946
 10
3.61988
 20
1.77192
 10
3.62312
 20
1.77308
 10
3.62637
 20
1.77418
 10
3.62962
 20
1.77523
 10
3.63287
 20
1.77621
 0
CIRCLE
 8
profile
 10
4.44095
 20
1.81595
 40
0.125
  0
ENDSEC
  0
EOF
